<svg xmlns="http://www.w3.org/2000/svg" width="1600" height="760" viewBox="0 110 1600 760" role="img" aria-labelledby="title desc">
<title id="title">Platform corner heights under wave excitation</title>
<desc id="desc">Perspective diagram of a floating platform over a wavy water surface, with four sampled deck zones and local water heights.</desc>
<defs>
<style>
.label { font-family: Arial, Helvetica, sans-serif; font-size: 30px; font-weight: 700; fill: #0f172a; }
.motion { font-family: Arial, Helvetica, sans-serif; font-size: 30px; font-weight: 700; }
.small { font-family: Arial, Helvetica, sans-serif; font-size: 22px; font-weight: 600; fill: #475569; }
</style>
<linearGradient id="waterGradient" x1="0" y1="0" x2="0" y2="1">
<stop offset="0%" stop-color="#d9f4ff" stop-opacity="0.96"/>
<stop offset="100%" stop-color="#7dd3fc" stop-opacity="0.40"/>
</linearGradient>
<filter id="softShadow" x="-20%" y="-20%" width="140%" height="160%">
<feDropShadow dx="0" dy="18" stdDeviation="18" flood-color="#0f172a" flood-opacity="0.13"/>
</filter>
<marker id="arrow-heave" markerWidth="12" markerHeight="12" refX="10" refY="6" orient="auto" markerUnits="strokeWidth"><path d="M0,0 L12,6 L0,12 z" fill="#dc2626"/></marker>
<marker id="arrow-pitch" markerWidth="12" markerHeight="12" refX="10" refY="6" orient="auto" markerUnits="strokeWidth"><path d="M0,0 L12,6 L0,12 z" fill="#d97706"/></marker>
<marker id="arrow-roll" markerWidth="12" markerHeight="12" refX="10" refY="6" orient="auto" markerUnits="strokeWidth"><path d="M0,0 L12,6 L0,12 z" fill="#0f766e"/></marker>
<marker id="dot-height" markerWidth="8" markerHeight="8" refX="4" refY="4" orient="auto" markerUnits="strokeWidth"><circle cx="4" cy="4" r="3.2" fill="#0ea5e9"/></marker>
</defs>
<rect x="0" y="110" width="1600" height="760" fill="#ffffff"/>
<path d="M70,666 C210,596 324,604 438,656 C565,724 667,628 756,563 C842,500 924,552 1003,492 C1085,430 1187,498 1275,555 C1372,618 1462,559 1534,506 L1552,835 L48,835 Z" fill="url(#waterGradient)" stroke="#0284c7" stroke-width="3.2"/>
<path d="M95,706 C245,630 363,719 515,646 C650,582 746,646 862,584 C988,516 1111,603 1234,662 C1370,727 1452,638 1520,590" fill="none" stroke="#7dd3fc" stroke-width="3.0" opacity="0.72"/>
<path d="M140,760 C288,695 409,771 552,704 C682,644 797,702 910,645 C1044,579 1150,666 1284,716 C1398,759 1486,696 1534,652" fill="none" stroke="#7dd3fc" stroke-width="3.0" opacity="0.72"/>
<path d="M218,610 C334,552 452,618 574,566 C701,510 787,576 894,528 C1028,468 1150,544 1270,603 C1385,660 1468,606 1532,560" fill="none" stroke="#7dd3fc" stroke-width="3.0" opacity="0.72"/>
<path d="M340,805 C455,753 566,812 704,760 C832,711 934,768 1064,716 C1197,663 1315,743 1450,782" fill="none" stroke="#7dd3fc" stroke-width="3.0" opacity="0.72"/>
<g filter="url(#softShadow)">
<polygon points="1215.0,405.0 760.0,575.0 782.0,621.0 1237.0,451.0" fill="#64748b" stroke="#334155" stroke-width="2.1" stroke-linejoin="round"/>
<polygon points="560.0,420.0 760.0,575.0 782.0,621.0 582.0,466.0" fill="#94a3b8" stroke="#334155" stroke-width="2.1" stroke-linejoin="round"/>
<polygon points="560.0,420.0 998.0,282.0 1215.0,405.0 760.0,575.0" fill="#f1f5f9" stroke="#334155" stroke-width="3.6" stroke-linejoin="round"/>
</g>
<line x1="660.0" y1="497.5" x2="1106.5" y2="343.5" stroke="#94a3b8" stroke-width="2.0" stroke-linecap="round" opacity="0.82" stroke-dasharray="12 9"/>
<line x1="779.0" y1="351.0" x2="987.5" y2="490.0" stroke="#94a3b8" stroke-width="2.0" stroke-linecap="round" opacity="0.82" stroke-dasharray="12 9"/>
<line x1="1106.5" y1="343.5" x2="1106.5" y2="524.0" stroke="#0ea5e9" stroke-width="5.0" stroke-linecap="round" opacity="0.22"/>
<line x1="1106.5" y1="343.5" x2="1106.5" y2="524.0" stroke="#0ea5e9" stroke-width="2.2" stroke-linecap="round" opacity="0.92" stroke-dasharray="12 9"/>
<circle cx="1106.5" cy="524.0" r="9.5" fill="#ffffff" stroke="#0ea5e9" stroke-width="3.0" opacity="0.95"/>
<path d="M1068.5,534.0 C1090.5,548.0 1124.5,548.0 1146.5,534.0" fill="none" stroke="#0284c7" stroke-width="2.2" opacity="0.55"/>
<line x1="660.0" y1="497.5" x2="660.0" y2="642.0" stroke="#0ea5e9" stroke-width="5.0" stroke-linecap="round" opacity="0.22"/>
<line x1="660.0" y1="497.5" x2="660.0" y2="642.0" stroke="#0ea5e9" stroke-width="2.2" stroke-linecap="round" opacity="0.92" stroke-dasharray="12 9"/>
<circle cx="660.0" cy="642.0" r="9.5" fill="#ffffff" stroke="#0ea5e9" stroke-width="3.0" opacity="0.95"/>
<path d="M622.0,652.0 C644.0,666.0 678.0,666.0 700.0,652.0" fill="none" stroke="#0284c7" stroke-width="2.2" opacity="0.55"/>
<line x1="779.0" y1="351.0" x2="779.0" y2="592.0" stroke="#0ea5e9" stroke-width="5.0" stroke-linecap="round" opacity="0.22"/>
<line x1="779.0" y1="351.0" x2="779.0" y2="592.0" stroke="#0ea5e9" stroke-width="2.2" stroke-linecap="round" opacity="0.92" stroke-dasharray="12 9"/>
<circle cx="779.0" cy="592.0" r="9.5" fill="#ffffff" stroke="#0ea5e9" stroke-width="3.0" opacity="0.95"/>
<path d="M741.0,602.0 C763.0,616.0 797.0,616.0 819.0,602.0" fill="none" stroke="#0284c7" stroke-width="2.2" opacity="0.55"/>
<line x1="987.5" y1="490.0" x2="987.5" y2="538.0" stroke="#0ea5e9" stroke-width="5.0" stroke-linecap="round" opacity="0.22"/>
<line x1="987.5" y1="490.0" x2="987.5" y2="538.0" stroke="#0ea5e9" stroke-width="2.2" stroke-linecap="round" opacity="0.92" stroke-dasharray="12 9"/>
<circle cx="987.5" cy="538.0" r="9.5" fill="#ffffff" stroke="#0ea5e9" stroke-width="3.0" opacity="0.95"/>
<path d="M949.5,548.0 C971.5,562.0 1005.5,562.0 1027.5,548.0" fill="none" stroke="#0284c7" stroke-width="2.2" opacity="0.55"/>
<circle cx="1106.5" cy="343.5" r="11.5" fill="#ffffff" stroke="#111827" stroke-width="3.0" opacity="1.0"/>
<circle cx="1106.5" cy="343.5" r="5.0" fill="#111827" stroke="none" stroke-width="1.0" opacity="1.0"/>
<text x="1248.0" y="302.0" class="label" text-anchor="start">proa</text>
<circle cx="660.0" cy="497.5" r="11.5" fill="#ffffff" stroke="#111827" stroke-width="3.0" opacity="1.0"/>
<circle cx="660.0" cy="497.5" r="5.0" fill="#111827" stroke="none" stroke-width="1.0" opacity="1.0"/>
<text x="628.0" y="530.0" class="label" text-anchor="end">popa</text>
<circle cx="779.0" cy="351.0" r="11.5" fill="#ffffff" stroke="#111827" stroke-width="3.0" opacity="1.0"/>
<circle cx="779.0" cy="351.0" r="5.0" fill="#111827" stroke="none" stroke-width="1.0" opacity="1.0"/>
<text x="735.0" y="342.0" class="label" text-anchor="end">babor</text>
<circle cx="987.5" cy="490.0" r="11.5" fill="#ffffff" stroke="#111827" stroke-width="3.0" opacity="1.0"/>
<circle cx="987.5" cy="490.0" r="5.0" fill="#111827" stroke="none" stroke-width="1.0" opacity="1.0"/>
<text x="1045.0" y="610.0" class="label" text-anchor="start">estribor</text>
<line x1="405" y1="452" x2="405" y2="365" stroke="#dc2626" stroke-width="7" stroke-linecap="round" marker-end="url(#arrow-heave)" opacity="0.92"/>
<line x1="405" y1="452" x2="405" y2="540" stroke="#dc2626" stroke-width="7" stroke-linecap="round" marker-end="url(#arrow-heave)" opacity="0.92"/>
<polygon points="405.0,348.0 389.0,377.0 421.0,377.0" fill="#dc2626" stroke="#dc2626" stroke-width="0.0" stroke-linejoin="round"/>
<polygon points="405.0,557.0 389.0,528.0 421.0,528.0" fill="#dc2626" stroke="#dc2626" stroke-width="0.0" stroke-linejoin="round"/>
<text x="405.0" y="338.0" class="motion" text-anchor="middle" fill="#dc2626">heave</text>
<path d="M690,492 C790,430 970,375 1090,348" fill="none" stroke="#d97706" stroke-width="7.0" stroke-linecap="round" marker-end="url(#arrow-pitch)" opacity="0.92"/>
<polygon points="1110.0,343.0 1072.0,336.0 1084.0,370.0" fill="#d97706" stroke="#d97706" stroke-width="0.0" stroke-linejoin="round"/>
<text x="905.0" y="374.0" class="motion" text-anchor="middle" fill="#d97706">pitch</text>
<path d="M794,358 C846,424 919,466 980,490" fill="none" stroke="#0f766e" stroke-width="7.0" stroke-linecap="round" marker-end="url(#arrow-roll)" opacity="0.92"/>
<polygon points="1000.0,499.0 963.0,489.0 988.0,463.0" fill="#0f766e" stroke="#0f766e" stroke-width="0.0" stroke-linejoin="round"/>
<text x="810.0" y="475.0" class="motion" text-anchor="middle" fill="#0f766e">roll</text>
</svg>